# xmcd CD database file
#
# Track frame offsets:
#	205
#	29319
#	50321
#	77951
#	89561
#	111502
#	129825
#	151274
#	170192
#	187170
#	208684
#
# Disc length: 3065 seconds
#
# Revision: 2
# Processed by: cddbd v1.5.2PL0 Copyright (c) Steve Scherf et al.
# Submitted via: CDex 1.51
#
DISCID=990bf70b
DTITLE=John Wetton - Geoffrey Downes - Icon
DYEAR=2005
DGENRE=Progressive Rock
TTITLE0=Overture: Paradox - Let Me Go
TTITLE1=God Walks With Us
TTITLE2=I Atand Alone
TTITLE3=Meet Me At Midnight
TTITLE4=Hey Josephine
TTITLE5=Far Away
TTITLE6=Please Change Your Mind
TTITLE7=Sleep Angel
TTITLE8=Spead Your Wings
TTITLE9=In The End
TTITLE10=Heat Of The Moment 2005
EXTD=YEAR: 2005
EXTT0=
EXTT1=
EXTT2=
EXTT3=
EXTT4=
EXTT5=
EXTT6=
EXTT7=
EXTT8=
EXTT9=
EXTT10=
PLAYORDER=
